<svg width="300" height="233" viewBox="0 0 300 233" fill="none" xmlns="http://www.w3.org/2000/svg">
<g clip-path="url(#clip0)">
<path d="M100.17 174.797C148.439 174.797 187.569 135.668 187.569 87.3986C187.569 39.1297 148.439 0 100.17 0C51.9012 0 12.7715 39.1297 12.7715 87.3986C12.7715 135.668 51.9012 174.797 100.17 174.797Z" fill="#F7E0DF"/>
<path d="M58.3835 225.687C90.6278 225.687 116.767 199.548 116.767 167.303C116.767 135.059 90.6278 108.92 58.3835 108.92C26.1392 108.92 0 135.059 0 167.303C0 199.548 26.1392 225.687 58.3835 225.687Z" fill="#F7E0DF"/>
<path d="M199.693 199.791C247.442 199.791 286.15 161.083 286.15 113.334C286.15 65.5849 247.442 26.8768 199.693 26.8768C151.944 26.8768 113.236 65.5849 113.236 113.334C113.236 161.083 151.944 199.791 199.693 199.791Z" fill="#F7E0DF"/>
<path d="M257.684 203.832C281.054 203.832 300 184.886 300 161.516C300 138.145 281.054 119.2 257.684 119.2C234.313 119.2 215.368 138.145 215.368 161.516C215.368 184.886 234.313 203.832 257.684 203.832Z" fill="#F7E0DF"/>
<path d="M237.222 159.358H69.5659V58.4227C69.5659 57.893 69.9975 57.4614 70.5272 57.4614H236.241C236.771 57.4614 237.203 57.893 237.203 58.4227V159.358H237.222Z" fill="#212121"/>
<path d="M249.954 232.219H56.8339C49.7714 232.219 44.6707 225.961 45.5535 219.389C46.2793 224.765 50.8504 229.257 56.8339 229.257H249.954C255.938 229.257 260.509 224.765 261.235 219.389C262.098 225.961 257.017 232.219 249.954 232.219Z" fill="#212121"/>
<path d="M261.215 219.37C260.489 224.745 255.918 229.238 249.935 229.238H56.8336C50.8501 229.238 46.2791 224.745 45.5532 219.37C45.6709 218.428 45.926 217.486 46.2987 216.564L69.5658 159.338H237.222L260.489 216.564C260.862 217.506 261.097 218.448 261.215 219.37Z" fill="#F8F9FF"/>
<path d="M231.121 64.622H75.667V154.002H231.121V64.622Z" fill="#F7E0DF"/>
<path d="M208.952 166.989H215.779C216.23 166.989 216.564 166.813 216.505 166.617L216.113 165.145C216.054 164.949 215.642 164.772 215.191 164.772H208.422C207.971 164.772 207.638 164.929 207.677 165.145L208.01 166.617C208.089 166.832 208.501 166.989 208.952 166.989Z" fill="#494949"/>
<path d="M76.0398 176.504H88.3796C88.8504 176.504 89.282 176.327 89.3409 176.092L90.1256 172.992C90.1845 172.777 89.851 172.6 89.3801 172.6H77.2365C76.7657 172.6 76.3341 172.777 76.2556 172.992L75.2943 176.092C75.2355 176.308 75.569 176.504 76.0398 176.504Z" fill="#494949"/>
<path d="M219.016 166.617C219.075 166.813 219.487 166.989 219.958 166.989H226.785C227.236 166.989 227.57 166.813 227.511 166.617L227.06 165.145C227.001 164.949 226.569 164.772 226.118 164.772H219.33C218.879 164.772 218.546 164.929 218.604 165.145L219.016 166.617Z" fill="#494949"/>
<path d="M77.5112 171.678H84.4756C84.9464 171.678 85.378 171.501 85.4369 171.286L86.2609 168.304C86.3197 168.088 85.9862 167.931 85.535 167.931H78.6883C78.2371 167.931 77.8055 168.108 77.727 168.304L76.8049 171.286C76.7265 171.501 77.06 171.678 77.5112 171.678Z" fill="#494949"/>
<path d="M196.926 165.145L197.201 166.617C197.24 166.813 197.652 166.989 198.103 166.989H204.93C205.382 166.989 205.735 166.813 205.676 166.617L205.342 165.145C205.303 164.949 204.891 164.772 204.44 164.772H197.672C197.24 164.772 196.887 164.929 196.926 165.145Z" fill="#494949"/>
<path d="M153.845 166.617C153.845 166.813 154.218 166.989 154.669 166.989H161.496C161.948 166.989 162.32 166.813 162.32 166.617L162.261 165.145C162.261 164.949 161.869 164.772 161.418 164.772H154.65C154.198 164.772 153.826 164.929 153.826 165.145L153.845 166.617Z" fill="#494949"/>
<path d="M165.636 166.989H172.463C172.914 166.989 173.287 166.813 173.267 166.617L173.149 165.145C173.13 164.949 172.757 164.772 172.286 164.772H165.518C165.067 164.772 164.694 164.929 164.714 165.145L164.792 166.617C164.792 166.832 165.184 166.989 165.636 166.989Z" fill="#494949"/>
<path d="M175.386 165.145L175.523 166.617C175.542 166.813 175.935 166.989 176.386 166.989H183.213C183.664 166.989 184.018 166.813 183.998 166.617L183.802 165.145C183.782 164.949 183.39 164.772 182.939 164.772H176.17C175.719 164.772 175.366 164.929 175.386 165.145Z" fill="#494949"/>
<path d="M143.212 166.617C143.212 166.813 143.565 166.989 144.036 166.989H150.863C151.314 166.989 151.687 166.813 151.707 166.617V165.145C151.707 164.949 151.334 164.772 150.883 164.772H144.114C143.663 164.772 143.29 164.929 143.271 165.145L143.212 166.617Z" fill="#494949"/>
<path d="M187.294 166.989H194.121C194.572 166.989 194.925 166.813 194.886 166.617L194.631 165.145C194.592 164.949 194.2 164.772 193.748 164.772H186.98C186.529 164.772 186.176 164.929 186.215 165.145L186.411 166.617C186.431 166.832 186.823 166.989 187.294 166.989Z" fill="#494949"/>
<path d="M199.967 172.6C199.497 172.6 199.143 172.777 199.183 172.992L199.771 176.092C199.81 176.308 200.242 176.504 200.713 176.504H207.795C208.266 176.504 208.619 176.327 208.58 176.092L207.893 172.992C207.854 172.777 207.422 172.6 206.951 172.6H199.967Z" fill="#494949"/>
<path d="M101.131 181.507C101.622 181.507 102.053 181.31 102.092 181.095L102.74 177.877C102.779 177.662 102.426 177.465 101.955 177.465H94.8338C94.363 177.465 93.9314 177.642 93.8725 177.877L93.127 181.095C93.0682 181.33 93.4213 181.507 93.9117 181.507H101.131Z" fill="#494949"/>
<path d="M186.215 176.504C186.686 176.504 187.058 176.327 187.019 176.092L186.607 172.992C186.568 172.777 186.176 172.6 185.705 172.6H178.721C178.25 172.6 177.897 172.777 177.916 172.992L178.23 176.092C178.25 176.308 178.662 176.504 179.133 176.504H186.215Z" fill="#494949"/>
<path d="M189.452 172.6C188.981 172.6 188.628 172.777 188.648 172.992L189.099 176.092C189.138 176.308 189.55 176.504 190.021 176.504H197.103C197.574 176.504 197.927 176.327 197.888 176.092L197.339 172.992C197.299 172.777 196.887 172.6 196.417 172.6H189.452Z" fill="#494949"/>
<path d="M214.288 168.304L215.034 171.286C215.093 171.501 215.505 171.678 215.976 171.678H228.159C228.629 171.678 228.943 171.501 228.884 171.286L227.962 168.304C227.903 168.088 227.472 167.931 227.001 167.931H214.995C214.563 167.931 214.23 168.108 214.288 168.304Z" fill="#494949"/>
<path d="M121.063 176.504C121.534 176.504 121.946 176.327 121.985 176.092L122.358 172.992C122.378 172.777 122.025 172.6 121.554 172.6H114.57C114.099 172.6 113.687 172.777 113.648 172.992L113.157 176.092C113.118 176.308 113.491 176.504 113.961 176.504H121.063Z" fill="#494949"/>
<path d="M176.955 182.527C176.465 182.527 176.092 182.723 176.112 182.958L176.406 186.313C176.425 186.549 176.857 186.745 177.348 186.745H184.724C185.214 186.745 185.607 186.549 185.568 186.313L185.156 182.958C185.136 182.723 184.704 182.527 184.214 182.527H176.955Z" fill="#494949"/>
<path d="M113.137 181.095L113.647 177.877C113.687 177.662 113.314 177.465 112.843 177.465H105.722C105.251 177.465 104.819 177.642 104.78 177.877L104.172 181.095C104.133 181.33 104.486 181.507 104.976 181.507H112.215C112.667 181.507 113.098 181.33 113.137 181.095Z" fill="#494949"/>
<path d="M132.461 165.145L132.344 166.617C132.324 166.813 132.677 166.989 133.148 166.989H139.975C140.426 166.989 140.819 166.813 140.819 166.617L140.897 165.145C140.917 164.949 140.544 164.772 140.093 164.772H133.324C132.854 164.772 132.481 164.929 132.461 165.145Z" fill="#494949"/>
<path d="M174.66 192.532L174.307 188.216C174.287 187.981 173.875 187.785 173.365 187.785H120.73C120.239 187.785 119.808 187.981 119.768 188.216L119.219 192.532C119.18 192.787 119.572 192.983 120.082 192.983H173.777C174.287 193.003 174.679 192.787 174.66 192.532Z" fill="#494949"/>
<path d="M117.591 188.236C117.63 188 117.238 187.804 116.747 187.804H106.507C106.016 187.804 105.565 188 105.526 188.236L104.741 192.552C104.702 192.807 105.075 193.003 105.585 193.003H116.022C116.532 193.003 116.963 192.807 117.002 192.552L117.591 188.236Z" fill="#494949"/>
<path d="M102.642 187.785H95.2853C94.7949 187.785 94.3436 187.981 94.2848 188.216L93.3235 192.532C93.2646 192.787 93.6374 192.983 94.1475 192.983H101.642C102.152 192.983 102.603 192.787 102.642 192.532L103.446 188.216C103.525 187.981 103.152 187.785 102.642 187.785Z" fill="#494949"/>
<path d="M188.648 188.236C188.609 188 188.177 187.804 187.687 187.804H177.446C176.955 187.804 176.563 188 176.583 188.236L176.975 192.552C176.995 192.807 177.426 193.003 177.936 193.003H188.373C188.883 193.003 189.276 192.807 189.236 192.552L188.648 188.236Z" fill="#494949"/>
<path d="M222.705 188.098C222.646 187.863 222.175 187.667 221.685 187.667H214.348C213.857 187.667 213.484 187.863 213.543 188.098L214.014 190.178H223.254L223.333 190.433H214.093L214.583 192.532C214.642 192.787 215.093 192.983 215.603 192.983H223.097C223.607 192.983 223.96 192.787 223.902 192.532L222.705 188.098Z" fill="#494949"/>
<path d="M235.476 192.532L235.005 190.982C234.927 190.727 234.456 190.531 233.946 190.531H226.51C226 190.531 225.647 190.727 225.726 190.982L226.157 192.532C226.236 192.787 226.687 192.983 227.197 192.983H234.691C235.201 193.003 235.555 192.787 235.476 192.532Z" fill="#494949"/>
<path d="M199.026 187.785H191.669C191.179 187.785 190.786 187.981 190.825 188.216L191.453 192.532C191.492 192.787 191.924 192.983 192.434 192.983H199.928C200.438 192.983 200.811 192.787 200.772 192.532L200.007 188.216C199.967 187.981 199.536 187.785 199.026 187.785Z" fill="#494949"/>
<path d="M91.0082 192.532L92.0088 188.216C92.0676 187.981 91.7145 187.785 91.2044 187.785H83.8476C83.3571 187.785 82.8863 187.981 82.8275 188.216L81.67 192.532C81.6111 192.787 81.9643 192.983 82.4743 192.983H89.9685C90.4785 193.003 90.9494 192.787 91.0082 192.532Z" fill="#494949"/>
<path d="M211.993 191.002C211.934 190.747 211.483 190.551 210.973 190.551H203.538C203.028 190.551 202.655 190.747 202.714 191.002L203.008 192.552C203.047 192.807 203.498 193.003 204.008 193.003H211.503C212.013 193.003 212.385 192.807 212.326 192.552L211.993 191.002Z" fill="#494949"/>
<path d="M119.317 171.286C119.298 171.501 119.651 171.678 120.122 171.678H127.086C127.557 171.678 127.949 171.501 127.969 171.286L128.263 168.304C128.283 168.088 127.93 167.931 127.459 167.931H120.612C120.161 167.931 119.749 168.108 119.729 168.304L119.317 171.286Z" fill="#494949"/>
<path d="M182.468 181.507H189.707C190.197 181.507 190.57 181.31 190.531 181.095L190.06 177.877C190.021 177.662 189.609 177.465 189.138 177.465H182.017C181.546 177.465 181.173 177.642 181.193 177.877L181.546 181.095C181.565 181.33 181.997 181.507 182.468 181.507Z" fill="#494949"/>
<path d="M111.588 166.989H118.415C118.866 166.989 119.278 166.813 119.298 166.617L119.513 165.145C119.533 164.949 119.199 164.772 118.748 164.772H111.98C111.529 164.772 111.136 164.929 111.097 165.145L110.842 166.617C110.783 166.832 111.117 166.989 111.588 166.989Z" fill="#494949"/>
<path d="M108.586 171.286C108.547 171.501 108.9 171.678 109.371 171.678H116.335C116.806 171.678 117.218 171.501 117.238 171.286L117.669 168.304C117.708 168.088 117.355 167.931 116.884 167.931H110.038C109.587 167.931 109.175 168.108 109.135 168.304L108.586 171.286Z" fill="#494949"/>
<path d="M122.319 166.989H129.146C129.597 166.989 129.989 166.813 130.009 166.617L130.146 165.145C130.166 164.949 129.813 164.772 129.362 164.772H122.593C122.142 164.772 121.75 164.929 121.73 165.145L121.534 166.617C121.514 166.832 121.848 166.989 122.319 166.989Z" fill="#494949"/>
<path d="M78.6883 165.145L78.2371 166.617C78.1782 166.813 78.4921 166.989 78.9629 166.989H85.79C86.2412 166.989 86.6728 166.813 86.7317 166.617L87.1437 165.145C87.2025 164.949 86.869 164.772 86.4178 164.772H79.6496C79.1787 164.772 78.7471 164.929 78.6883 165.145Z" fill="#494949"/>
<path d="M100.013 166.617C99.9737 166.813 100.307 166.989 100.758 166.989H107.586C108.037 166.989 108.449 166.813 108.488 166.617L108.763 165.145C108.802 164.949 108.468 164.772 107.997 164.772H101.229C100.778 164.772 100.366 164.929 100.327 165.145L100.013 166.617Z" fill="#494949"/>
<path d="M89.1054 166.617C89.0465 166.813 89.38 166.989 89.8312 166.989H96.6583C97.1096 166.989 97.5215 166.813 97.5804 166.617L97.9139 165.145C97.9531 164.949 97.6196 164.772 97.1684 164.772H90.4002C89.9489 164.772 89.537 164.929 89.4781 165.145L89.1054 166.617Z" fill="#494949"/>
<path d="M79.5318 192.532L80.7088 188.216C80.7677 187.981 80.4146 187.785 79.9241 187.785H72.5673C72.0769 187.785 71.606 187.981 71.5276 188.216L70.1935 192.532C70.1151 192.787 70.4682 192.983 70.9783 192.983H78.4724C79.0021 193.003 79.4729 192.787 79.5318 192.532Z" fill="#494949"/>
<path d="M98.7381 171.678H105.702C106.173 171.678 106.585 171.501 106.625 171.286L107.193 168.304C107.233 168.088 106.899 167.931 106.428 167.931H99.5816C99.1304 167.931 98.7184 168.108 98.6596 168.304L97.9926 171.286C97.9337 171.501 98.2672 171.678 98.7381 171.678Z" fill="#494949"/>
<path d="M132.187 186.745H139.563C140.053 186.745 140.465 186.549 140.485 186.313L140.642 182.958C140.662 182.723 140.269 182.527 139.779 182.527H132.52C132.03 182.527 131.618 182.723 131.598 182.958L131.323 186.313C131.304 186.549 131.696 186.745 132.187 186.745Z" fill="#494949"/>
<path d="M123.241 181.507C123.731 181.507 124.143 181.31 124.163 181.095L124.516 177.877C124.535 177.662 124.163 177.465 123.692 177.465H116.571C116.1 177.465 115.668 177.642 115.648 177.877L115.178 181.095C115.138 181.33 115.511 181.507 116.002 181.507H123.241Z" fill="#494949"/>
<path d="M117.473 182.527H110.214C109.724 182.527 109.292 182.723 109.253 182.958L108.684 186.313C108.645 186.549 109.017 186.745 109.508 186.745H116.884C117.375 186.745 117.806 186.549 117.846 186.313L118.297 182.958C118.336 182.723 117.963 182.527 117.473 182.527Z" fill="#494949"/>
<path d="M106.585 186.294L107.174 182.939C107.213 182.703 106.86 182.507 106.369 182.507H99.1108C98.6203 182.507 98.1887 182.703 98.1299 182.939L97.4236 186.294C97.3647 186.529 97.7375 186.725 98.2279 186.725H105.604C106.114 186.745 106.546 186.549 106.585 186.294Z" fill="#494949"/>
<path d="M120.789 186.745H128.165C128.656 186.745 129.087 186.549 129.107 186.313L129.421 182.958C129.44 182.723 129.067 182.527 128.577 182.527H121.318C120.828 182.527 120.416 182.723 120.377 182.958L119.945 186.313C119.925 186.549 120.298 186.745 120.789 186.745Z" fill="#494949"/>
<path d="M94.2652 186.745C94.7556 186.745 95.2069 186.549 95.2657 186.313L96.0112 182.958C96.07 182.723 95.7169 182.527 95.2265 182.527H74.1958C73.7054 182.527 73.2542 182.723 73.1757 182.958L72.1359 186.313C72.0575 186.549 72.4106 186.745 72.901 186.745H94.2652Z" fill="#494949"/>
<path d="M93.2254 172.6C92.7546 172.6 92.323 172.777 92.2837 172.992L91.5186 176.092C91.4598 176.308 91.8129 176.504 92.2837 176.504H99.3658C99.8367 176.504 100.268 176.327 100.308 176.092L100.955 172.992C100.994 172.777 100.661 172.6 100.19 172.6H93.2254Z" fill="#494949"/>
<path d="M103.898 172.6C103.427 172.6 103.015 172.777 102.975 172.992L102.348 176.092C102.308 176.308 102.662 176.504 103.132 176.504H110.215C110.685 176.504 111.117 176.327 111.137 176.092L111.647 172.992C111.686 172.777 111.333 172.6 110.862 172.6H103.898Z" fill="#494949"/>
<path d="M173.875 182.958C173.856 182.723 173.444 182.527 172.953 182.527H165.694C165.204 182.527 164.812 182.723 164.831 182.958L164.988 186.313C165.008 186.549 165.42 186.745 165.91 186.745H173.287C173.777 186.745 174.169 186.549 174.15 186.313L173.875 182.958Z" fill="#494949"/>
<path d="M73.7639 181.095C73.6854 181.33 74.0385 181.507 74.5094 181.507H89.9096C90.4 181.507 90.8316 181.31 90.8905 181.095L91.6752 177.877C91.7341 177.662 91.3809 177.465 90.9101 177.465H75.7453C75.2745 177.465 74.8233 177.642 74.7448 177.877L73.7639 181.095Z" fill="#494949"/>
<path d="M195.985 186.745C196.475 186.745 196.848 186.549 196.809 186.313L196.24 182.958C196.2 182.723 195.769 182.527 195.278 182.527H188.02C187.529 182.527 187.156 182.723 187.196 182.958L187.647 186.313C187.686 186.549 188.118 186.745 188.608 186.745H195.985Z" fill="#494949"/>
<path d="M140.681 168.304L140.524 171.286C140.505 171.501 140.877 171.678 141.348 171.678H148.313C148.783 171.678 149.156 171.501 149.176 171.286L149.215 168.304C149.215 168.088 148.842 167.931 148.391 167.931H141.544C141.073 167.931 140.681 168.108 140.681 168.304Z" fill="#494949"/>
<path d="M130.127 168.304L129.852 171.286C129.833 171.501 130.205 171.678 130.657 171.678H137.621C138.092 171.678 138.484 171.501 138.484 171.286L138.661 168.304C138.68 168.088 138.308 167.931 137.856 167.931H131.01C130.519 167.931 130.147 168.108 130.127 168.304Z" fill="#494949"/>
<path d="M87.3593 171.286C87.3004 171.501 87.6339 171.678 88.1048 171.678H95.0692C95.54 171.678 95.952 171.501 96.0109 171.286L96.6975 168.304C96.7367 168.088 96.4032 167.931 95.952 167.931H89.1053C88.6541 167.931 88.2225 168.108 88.1636 168.304L87.3593 171.286Z" fill="#494949"/>
<path d="M231.494 182.527H210.365C209.874 182.527 209.521 182.723 209.58 182.958L210.326 186.313C210.384 186.549 210.816 186.745 211.326 186.745H232.808C233.298 186.745 233.652 186.549 233.573 186.313L232.533 182.958C232.435 182.723 231.984 182.527 231.494 182.527Z" fill="#494949"/>
<path d="M179.506 181.095L179.172 177.877C179.153 177.662 178.741 177.465 178.27 177.465H171.148C170.678 177.465 170.285 177.642 170.305 177.877L170.521 181.095C170.54 181.33 170.952 181.507 171.423 181.507H178.662C179.153 181.507 179.525 181.33 179.506 181.095Z" fill="#494949"/>
<path d="M229.454 172.992C229.395 172.777 228.943 172.6 228.473 172.6H221.489C221.018 172.6 220.684 172.777 220.743 172.992L221.587 176.092C221.646 176.308 222.077 176.504 222.568 176.504H229.65C230.121 176.504 230.454 176.327 230.395 176.092L229.454 172.992Z" fill="#494949"/>
<path d="M151.883 167.931C151.432 167.931 151.04 168.108 151.04 168.304L151.02 171.286C151.02 171.501 151.393 171.678 151.864 171.678H158.828C159.299 171.678 159.672 171.501 159.672 171.286L159.593 168.304C159.593 168.088 159.201 167.931 158.75 167.931H151.883Z" fill="#494949"/>
<path d="M208.148 186.294L207.442 182.939C207.383 182.703 206.952 182.507 206.461 182.507H199.202C198.712 182.507 198.359 182.703 198.398 182.939L198.987 186.294C199.026 186.529 199.477 186.725 199.967 186.725H207.344C207.834 186.745 208.187 186.549 208.148 186.294Z" fill="#494949"/>
<path d="M230.964 177.877C230.886 177.662 230.454 177.465 229.964 177.465H214.603C214.132 177.465 213.779 177.642 213.837 177.877L214.622 181.095C214.681 181.33 215.113 181.507 215.603 181.507H231.2C231.69 181.507 232.024 181.31 231.945 181.095L230.964 177.877Z" fill="#494949"/>
<path d="M162.516 167.931C162.065 167.931 161.692 168.108 161.692 168.304L161.81 171.286C161.81 171.501 162.202 171.678 162.673 171.678H169.638C170.109 171.678 170.481 171.501 170.462 171.286L170.246 168.304C170.226 168.088 169.854 167.931 169.383 167.931H162.516Z" fill="#494949"/>
<path d="M142.918 172.6H135.934C135.463 172.6 135.071 172.777 135.051 172.992L134.835 176.092C134.816 176.308 135.188 176.504 135.679 176.504H142.761C143.232 176.504 143.624 176.327 143.644 176.092L143.761 172.992C143.761 172.777 143.389 172.6 142.918 172.6Z" fill="#494949"/>
<path d="M127.184 181.507H134.423C134.914 181.507 135.326 181.31 135.326 181.095L135.542 177.877C135.561 177.662 135.188 177.465 134.698 177.465H127.577C127.106 177.465 126.694 177.642 126.674 177.877L126.341 181.095C126.321 181.33 126.694 181.507 127.184 181.507Z" fill="#494949"/>
<path d="M146.272 181.095L146.351 177.877C146.351 177.662 145.978 177.465 145.488 177.465H138.366C137.896 177.465 137.484 177.642 137.464 177.877L137.268 181.095C137.248 181.33 137.641 181.507 138.131 181.507H145.37C145.861 181.507 146.253 181.33 146.272 181.095Z" fill="#494949"/>
<path d="M157.239 172.6C156.768 172.6 156.396 172.777 156.396 172.992L156.435 176.092C156.435 176.308 156.827 176.504 157.298 176.504H164.38C164.851 176.504 165.243 176.327 165.224 176.092L165.067 172.992C165.047 172.777 164.674 172.6 164.203 172.6H157.239Z" fill="#494949"/>
<path d="M143.369 186.745H150.746C151.236 186.745 151.648 186.549 151.648 186.313L151.668 182.958C151.668 182.723 151.275 182.527 150.785 182.527H143.526C143.036 182.527 142.624 182.723 142.624 182.958L142.486 186.313C142.486 186.549 142.879 186.745 143.369 186.745Z" fill="#494949"/>
<path d="M211.738 181.507C212.229 181.507 212.582 181.31 212.523 181.095L211.778 177.877C211.719 177.662 211.287 177.465 210.816 177.465H203.695C203.224 177.465 202.871 177.642 202.91 177.877L203.558 181.095C203.597 181.33 204.028 181.507 204.519 181.507H211.738Z" fill="#494949"/>
<path d="M146.684 172.6C146.214 172.6 145.821 172.777 145.821 172.992L145.743 176.092C145.743 176.308 146.115 176.504 146.586 176.504H153.668C154.139 176.504 154.532 176.327 154.532 176.092L154.512 172.992C154.512 172.777 154.12 172.6 153.649 172.6H146.684Z" fill="#494949"/>
<path d="M219.526 176.092L218.702 172.992C218.643 172.777 218.212 172.6 217.741 172.6H210.757C210.286 172.6 209.953 172.777 209.992 172.992L210.698 176.092C210.757 176.308 211.189 176.504 211.659 176.504H218.742C219.252 176.504 219.585 176.308 219.526 176.092Z" fill="#494949"/>
<path d="M154.748 186.745H162.124C162.615 186.745 163.007 186.549 163.007 186.313L162.87 182.958C162.87 182.723 162.458 182.527 161.967 182.527H154.708C154.218 182.527 153.826 182.723 153.826 182.958L153.845 186.313C153.845 186.549 154.238 186.745 154.748 186.745Z" fill="#494949"/>
<path d="M172.973 167.931C172.521 167.931 172.149 168.108 172.168 168.304L172.404 171.286C172.423 171.501 172.816 171.678 173.286 171.678H180.251C180.722 171.678 181.075 171.501 181.055 171.286L180.722 168.304C180.702 168.088 180.31 167.931 179.839 167.931H172.973Z" fill="#494949"/>
<path d="M204.42 167.931C203.969 167.931 203.616 168.108 203.655 168.304L204.283 171.286C204.322 171.501 204.754 171.678 205.205 171.678H212.17C212.64 171.678 212.974 171.501 212.915 171.286L212.189 168.304C212.13 168.088 211.718 167.931 211.267 167.931H204.42Z" fill="#494949"/>
<path d="M183.488 167.931C183.037 167.931 182.664 168.108 182.704 168.304L183.076 171.286C183.096 171.501 183.508 171.678 183.979 171.678H190.943C191.414 171.678 191.767 171.501 191.728 171.286L191.257 168.304C191.218 168.088 190.825 167.931 190.355 167.931H183.488Z" fill="#494949"/>
<path d="M193.042 168.304L193.533 171.286C193.572 171.501 193.984 171.678 194.435 171.678H201.4C201.87 171.678 202.204 171.501 202.165 171.286L201.576 168.304C201.537 168.088 201.125 167.931 200.674 167.931H193.827C193.356 167.931 193.023 168.108 193.042 168.304Z" fill="#494949"/>
<path d="M156.513 181.507C157.003 181.507 157.396 181.31 157.396 181.095L157.337 177.877C157.337 177.662 156.945 177.465 156.454 177.465H149.333C148.862 177.465 148.47 177.642 148.45 177.877L148.391 181.095C148.391 181.33 148.783 181.507 149.274 181.507H156.513Z" fill="#494949"/>
<path d="M201.615 181.095L201.007 177.877C200.968 177.662 200.536 177.465 200.065 177.465H192.944C192.473 177.465 192.1 177.642 192.14 177.877L192.65 181.095C192.689 181.33 193.101 181.507 193.591 181.507H200.83C201.301 181.507 201.674 181.33 201.615 181.095Z" fill="#494949"/>
<path d="M167.441 181.507C167.931 181.507 168.304 181.31 168.304 181.095L168.108 177.877C168.088 177.662 167.696 177.465 167.205 177.465H160.084C159.613 177.465 159.221 177.642 159.221 177.877L159.299 181.095C159.299 181.33 159.711 181.507 160.182 181.507H167.441Z" fill="#494949"/>
<path d="M132.01 176.504C132.481 176.504 132.893 176.327 132.913 176.092L133.168 172.992C133.187 172.777 132.815 172.6 132.344 172.6H125.36C124.889 172.6 124.497 172.777 124.457 172.992L124.104 176.092C124.085 176.308 124.438 176.504 124.928 176.504H132.01Z" fill="#494949"/>
<path d="M175.386 176.504C175.857 176.504 176.23 176.327 176.21 176.092L175.916 172.992C175.896 172.777 175.504 172.6 175.033 172.6H168.049C167.578 172.6 167.205 172.777 167.225 172.992L167.401 176.092C167.421 176.308 167.813 176.504 168.284 176.504H175.386Z" fill="#494949"/>
<path d="M174.052 221.429H120.553C120.082 221.429 119.749 221.057 119.808 220.586L121.985 199.457C122.024 199.065 122.397 198.751 122.829 198.751H171.815C172.247 198.751 172.619 199.065 172.659 199.457L174.836 220.586C174.856 221.057 174.522 221.429 174.052 221.429Z" fill="#D3D5DD"/>
<path d="M226.569 51.9291H81.1011V149.47H226.569V51.9291Z" fill="white"/>
<path d="M203.871 59.4625H86.7515V71.9984H203.871V59.4625Z" fill="#EAEAEA"/>
<path d="M220.625 59.4625H197.691V71.4491H220.625V59.4625Z" fill="#4A94D8"/>
<path d="M149.078 81.8663H88.0659C87.34 81.8663 86.7515 81.2778 86.7515 80.5519V80.4538C86.7515 79.7279 87.34 79.1394 88.0659 79.1394H149.078C149.804 79.1394 150.393 79.7279 150.393 80.4538V80.5519C150.412 81.2778 149.804 81.8663 149.078 81.8663Z" fill="#4A94D8"/>
<path d="M219.546 82.0429H197.633C196.868 82.0429 196.26 81.4348 196.26 80.6697C196.26 79.9045 196.868 79.2964 197.633 79.2964H219.546C220.312 79.2964 220.92 79.9045 220.92 80.6697C220.92 81.4348 220.292 82.0429 219.546 82.0429Z" fill="#4A94D8"/>
<path d="M211.679 86.8297H197.653C196.887 86.8297 196.279 86.2216 196.279 85.4565C196.279 84.6914 196.887 84.0832 197.653 84.0832H211.679C212.445 84.0832 213.053 84.6914 213.053 85.4565C213.033 86.2216 212.425 86.8297 211.679 86.8297Z" fill="#EAEAEA"/>
<path d="M97.9142 86.3196H88.0659C87.34 86.3196 86.7515 85.7311 86.7515 85.0052V84.9071C86.7515 84.1813 87.34 83.5927 88.0659 83.5927H97.9142C98.64 83.5927 99.2286 84.1813 99.2286 84.9071V85.0052C99.2286 85.7311 98.64 86.3196 97.9142 86.3196Z" fill="#FA7268"/>
<path d="M140.76 86.3196H104.427C103.701 86.3196 103.113 85.7311 103.113 85.0052V84.9071C103.113 84.1813 103.701 83.5927 104.427 83.5927H140.76C141.486 83.5927 142.074 84.1813 142.074 84.9071V85.0052C142.074 85.7311 141.486 86.3196 140.76 86.3196Z" fill="#FA7268"/>
<path d="M109.861 89.5762H87.4181C87.0453 89.5762 86.7314 89.2624 86.7314 88.8896C86.7314 88.5169 87.0453 88.203 87.4181 88.203H109.861C110.234 88.203 110.548 88.5169 110.548 88.8896C110.548 89.2624 110.234 89.5762 109.861 89.5762Z" fill="#4A94D8"/>
<path d="M149.078 98.6398H88.0659C87.34 98.6398 86.7515 98.0513 86.7515 97.3254V97.2273C86.7515 96.5014 87.34 95.9129 88.0659 95.9129H149.078C149.804 95.9129 150.393 96.5014 150.393 97.2273V97.3254C150.412 98.0513 149.804 98.6398 149.078 98.6398Z" fill="#4A94D8"/>
<path d="M97.9142 103.093H88.0659C87.34 103.093 86.7515 102.505 86.7515 101.779V101.681C86.7515 100.955 87.34 100.366 88.0659 100.366H97.9142C98.64 100.366 99.2286 100.955 99.2286 101.681V101.779C99.2286 102.505 98.64 103.093 97.9142 103.093Z" fill="#FA7268"/>
<path d="M140.76 103.093H104.427C103.701 103.093 103.113 102.505 103.113 101.779V101.681C103.113 100.955 103.701 100.366 104.427 100.366H140.76C141.486 100.366 142.074 100.955 142.074 101.681V101.779C142.074 102.505 141.486 103.093 140.76 103.093Z" fill="#FA7268"/>
<path d="M109.861 106.35H87.4181C87.0453 106.35 86.7314 106.036 86.7314 105.663C86.7314 105.29 87.0453 104.976 87.4181 104.976H109.861C110.234 104.976 110.548 105.29 110.548 105.663C110.548 106.036 110.234 106.35 109.861 106.35Z" fill="#4A94D8"/>
<path d="M149.078 116.1H88.0659C87.34 116.1 86.7515 115.511 86.7515 114.785V114.687C86.7515 113.962 87.34 113.373 88.0659 113.373H149.078C149.804 113.373 150.393 113.962 150.393 114.687V114.785C150.412 115.511 149.804 116.1 149.078 116.1Z" fill="#4A94D8"/>
<path d="M97.9142 120.553H88.0659C87.34 120.553 86.7515 119.965 86.7515 119.239V119.141C86.7515 118.415 87.34 117.826 88.0659 117.826H97.9142C98.64 117.826 99.2286 118.415 99.2286 119.141V119.239C99.2286 119.965 98.64 120.553 97.9142 120.553Z" fill="#FA7268"/>
<path d="M140.76 120.553H104.427C103.701 120.553 103.113 119.965 103.113 119.239V119.141C103.113 118.415 103.701 117.826 104.427 117.826H140.76C141.486 117.826 142.074 118.415 142.074 119.141V119.239C142.074 119.965 141.486 120.553 140.76 120.553Z" fill="#FA7268"/>
<path d="M109.861 123.81H87.4181C87.0453 123.81 86.7314 123.496 86.7314 123.123C86.7314 122.75 87.0453 122.437 87.4181 122.437H109.861C110.234 122.437 110.548 122.75 110.548 123.123C110.548 123.496 110.234 123.81 109.861 123.81Z" fill="#4A94D8"/>
<path d="M149.078 132.873H88.0659C87.34 132.873 86.7515 132.285 86.7515 131.559V131.461C86.7515 130.735 87.34 130.146 88.0659 130.146H149.078C149.804 130.146 150.393 130.735 150.393 131.461V131.559C150.412 132.285 149.804 132.873 149.078 132.873Z" fill="#4A94D8"/>
<path d="M97.9142 137.327H88.0659C87.34 137.327 86.7515 136.738 86.7515 136.012V135.914C86.7515 135.188 87.34 134.6 88.0659 134.6H97.9142C98.64 134.6 99.2286 135.188 99.2286 135.914V136.012C99.2286 136.738 98.64 137.327 97.9142 137.327Z" fill="#FA7268"/>
<path d="M140.76 137.327H104.427C103.701 137.327 103.113 136.738 103.113 136.012V135.914C103.113 135.188 103.701 134.6 104.427 134.6H140.76C141.486 134.6 142.074 135.188 142.074 135.914V136.012C142.074 136.738 141.486 137.327 140.76 137.327Z" fill="#FA7268"/>
<path d="M109.861 140.583H87.4181C87.0453 140.583 86.7314 140.269 86.7314 139.897C86.7314 139.524 87.0453 139.21 87.4181 139.21H109.861C110.234 139.21 110.548 139.524 110.548 139.897C110.548 140.269 110.234 140.583 109.861 140.583Z" fill="#4A94D8"/>
<path d="M192.846 79.3159H165.459V97.1095H192.846V79.3159Z" fill="#FA7268"/>
<path d="M219.546 104.643H197.633C196.868 104.643 196.26 104.035 196.26 103.27C196.26 102.505 196.868 101.896 197.633 101.896H219.546C220.312 101.896 220.92 102.505 220.92 103.27C220.92 104.015 220.292 104.643 219.546 104.643Z" fill="#4A94D8"/>
<path d="M211.679 109.43H197.653C196.887 109.43 196.279 108.822 196.279 108.056C196.279 107.291 196.887 106.683 197.653 106.683H211.679C212.445 106.683 213.053 107.291 213.053 108.056C213.033 108.822 212.425 109.43 211.679 109.43Z" fill="#EAEAEA"/>
<path d="M192.846 101.896H165.459V119.69H192.846V101.896Z" fill="#FA7268"/>
<path d="M219.546 126.89H197.633C196.868 126.89 196.26 126.282 196.26 125.517C196.26 124.751 196.868 124.143 197.633 124.143H219.546C220.312 124.143 220.92 124.751 220.92 125.517C220.92 126.262 220.292 126.89 219.546 126.89Z" fill="#4A94D8"/>
<path d="M211.679 131.677H197.653C196.887 131.677 196.279 131.069 196.279 130.303C196.279 129.538 196.887 128.93 197.653 128.93H211.679C212.445 128.93 213.053 129.538 213.053 130.303C213.033 131.069 212.425 131.677 211.679 131.677Z" fill="#EAEAEA"/>
<path d="M192.846 124.143H165.459V141.937H192.846V124.143Z" fill="#FA7268"/>
<path d="M12.0845 188.746L49.0058 178.054L46.6909 171.266L10.9663 185.45L12.0845 188.746Z" fill="#4076AD"/>
<path d="M48.4368 178.732L83.0522 166.943L80.4401 159.273L45.8247 171.063L48.4368 178.732Z" fill="#FA7268"/>
<path d="M79.2766 163.89C80.8657 168.578 83.3375 172.816 86.6138 176.484C89.7723 180.016 93.5389 182.88 97.8157 184.979C102.092 187.078 106.663 188.314 111.391 188.667C116.296 189.02 121.161 188.393 125.83 186.784C130.519 185.195 134.757 182.723 138.425 179.447C141.956 176.288 144.821 172.522 146.92 168.245C149.019 163.968 150.255 159.397 150.608 154.669C150.961 149.765 150.333 144.899 148.744 140.23C147.155 135.542 144.683 131.304 141.407 127.635C138.249 124.104 134.482 121.24 130.205 119.141C125.928 117.042 121.357 115.806 116.629 115.453C111.725 115.099 106.86 115.727 102.191 117.336C97.5018 118.925 93.2643 121.397 89.5957 124.673C86.0645 127.832 83.2002 131.598 81.1011 135.875C79.0019 140.152 77.766 144.723 77.4129 149.451C77.0401 154.355 77.6679 159.201 79.2766 163.89ZM103.544 121.377C120.475 115.61 138.916 124.693 144.683 141.623C150.451 158.554 141.368 176.995 124.437 182.762C107.507 188.53 89.066 179.447 83.2983 162.516C77.5502 145.606 86.6137 127.145 103.544 121.377Z" fill="#4076AD"/>
<path d="M83.2984 162.516C89.0661 179.447 107.507 188.51 124.438 182.762C141.368 176.995 150.432 158.554 144.683 141.623C138.916 124.693 120.455 115.61 103.544 121.377C86.6138 127.145 77.5503 145.606 83.2984 162.516Z" fill="#E1F9F9"/>
<path d="M118.19 140.198C119.982 138.285 119.884 135.28 117.97 133.488C116.057 131.696 113.052 131.794 111.26 133.707C109.468 135.621 109.566 138.625 111.479 140.417C113.393 142.21 116.397 142.112 118.19 140.198Z" fill="white"/>
<path d="M104.878 146.528C104.918 147.999 106.134 149.156 107.605 149.137C109.077 149.098 110.234 147.881 110.215 146.41C110.175 144.939 108.959 143.781 107.488 143.801C106.016 143.82 104.839 145.056 104.878 146.528Z" fill="white"/>
</g>
<defs>
<clipPath id="clip0">
<rect width="300" height="232.219" fill="white"/>
</clipPath>
</defs>
</svg>
