<svg width="97" height="40" viewBox="0 0 97 40" fill="none" xmlns="http://www.w3.org/2000/svg">
<path d="M58.2984 19.9169C58.2984 23.5684 55.2694 26.5974 51.6179 26.5559C47.9665 26.5559 44.9374 23.5684 44.9789 19.9169C44.9789 16.2655 47.9665 13.2365 51.6179 13.2365C55.2694 13.2365 58.2984 16.2655 58.2984 19.9169ZM56.4727 19.9169C56.4727 17.2613 54.315 15.0622 51.6179 15.0622C48.9623 15.0622 46.7632 17.2613 46.7632 19.9169C46.7632 22.5725 48.9623 24.7717 51.6179 24.7717C54.315 24.7717 56.5142 22.5725 56.4727 19.9169Z" fill="white"/>
<path d="M65.0617 26.5974C63.8999 26.5974 62.7381 26.1825 61.7837 25.4356V30.2904H59.9995V16.5145H61.7837V17.6763C62.6966 16.9294 63.8584 16.5145 65.0617 16.5145C67.8418 16.5145 70.124 18.7966 70.0825 21.5352C70.124 24.3153 67.8418 26.5974 65.0617 26.5974ZM65.0617 18.2987C63.2775 18.2987 61.7837 19.751 61.7837 21.5352C61.7837 23.3194 63.236 24.8132 65.0617 24.8132C66.846 24.8132 68.2983 23.3609 68.2983 21.5352C68.2983 19.7925 66.846 18.2987 65.0617 18.2987Z" fill="white"/>
<path d="M73.1944 22.4481C73.6094 23.8174 74.8542 24.7717 76.3065 24.7717C77.2193 24.7717 78.1322 24.3568 78.7546 23.6514H80.8708C80.7878 23.8589 80.6633 24.0248 80.5803 24.2323C80.5803 24.2323 80.4144 24.4398 80.3729 24.4813C79.46 25.8091 77.9247 26.5974 76.3065 26.5974C74.8957 26.5974 73.5264 26.0165 72.6135 24.9792C71.4932 23.8174 71.0368 22.0746 71.3687 20.4979C71.8666 18.1742 73.8998 16.5145 76.265 16.5145C78.0907 16.5145 79.709 17.4273 80.6218 19.0041C80.8293 19.336 81.5762 20.6223 81.2442 22.4896H73.1944V22.4481ZM79.46 20.6638C79.0036 19.2531 77.8003 18.3402 76.348 18.3402C74.8957 18.3402 73.6509 19.2531 73.2359 20.6638H79.46Z" fill="white"/>
<path d="M82.9038 26.5975V12.8215H84.688V26.5975H82.9038Z" fill="white"/>
<path d="M94.5224 16.5145H96.3066V26.5975H94.5224V25.4356C93.6095 26.1825 92.4477 26.5975 91.2859 26.5975C88.5058 26.5975 86.2236 24.3153 86.2236 21.5352C86.2236 18.7551 88.5058 16.473 91.2859 16.5145C92.4477 16.5145 93.6095 16.9294 94.5224 17.6763V16.5145ZM94.5224 21.5352C94.5224 19.751 93.0701 18.2987 91.2859 18.2987C89.5016 18.2987 88.0079 19.751 88.0079 21.5352C88.0079 23.3195 89.4601 24.8132 91.2859 24.8132C93.0701 24.8132 94.5224 23.3195 94.5224 21.5352Z" fill="white"/>
<path d="M39.9585 19.1286C39.5851 10.2075 33.3195 2.78008 24.9793 0.622407C23.4025 0.207469 21.7012 0 20 0C11.7842 0 4.77178 4.93776 1.65975 11.9917C1.41079 12.5311 1.20332 13.112 0.995851 13.6515C0.373444 15.6432 0 17.7593 0 20C0 31.0373 8.96266 40 20 40C24.1909 40 28.0913 38.7137 31.2863 36.5145C36.0581 33.2365 39.3361 27.9668 39.917 21.9087C39.9585 21.2863 40 20.6224 40 20C40 19.7095 40 19.4191 39.9585 19.1286ZM20.2075 27.2199C16.3485 27.2199 13.195 24.1909 12.9876 20.3734C12.9876 20.249 12.9876 20.1245 12.9876 20C12.9876 19.8755 12.9876 19.751 12.9876 19.6266C13.195 15.8091 16.3485 12.7801 20.2075 12.7801C21.2863 12.7801 22.3651 13.029 23.278 13.444C24.1909 14.0249 25.0207 14.6888 25.8091 15.3942C26.8465 16.639 27.4274 18.2573 27.4274 19.9585C27.4689 23.9834 24.2324 27.2199 20.2075 27.2199Z" fill="#F1E62B"/>
<path d="M39.9583 19.1287C39.6264 21.7428 38.7135 24.1494 37.3442 26.2241C35.9334 28.0083 34.2322 29.5851 32.3235 30.7884C32.3235 30.8714 32.3235 30.9959 32.3235 31.0789C32.2405 32.9461 31.9085 34.7718 31.3276 36.5146C36.0994 33.2365 39.3774 27.9668 39.9583 21.9087C39.9998 21.2863 40.0413 20.6224 40.0413 20C39.9998 19.7096 39.9998 19.4191 39.9583 19.1287Z" fill="url(#paint0_linear)"/>
<path d="M8.46463 10.5394C10.9957 4.6888 16.8049 0.580913 23.6099 0.580913C24.0663 0.580913 24.5227 0.622407 24.9791 0.622407C23.4024 0.207469 21.7011 0 19.9999 0C11.7841 0 4.77168 4.93776 1.65965 11.9917C1.61815 12.4066 1.57666 12.8631 1.57666 13.278C3.65135 11.9502 5.975 11.0373 8.46463 10.5394Z" fill="url(#paint1_linear)"/>
<path d="M8.46436 10.5394C9.70917 10.2905 10.9955 10.166 12.3233 10.166C13.9415 10.166 15.5183 10.3735 17.0536 10.7469C19.2942 8.63071 22.3233 7.34441 25.6843 7.34441C32.6552 7.34441 38.3399 13.0291 38.3399 20C38.3399 24.5643 35.9332 28.5477 32.3233 30.7469C34.2735 29.5021 35.9747 27.9668 37.344 26.1826C38.7133 24.1079 39.6677 21.7013 39.9581 19.0871C39.5847 10.166 33.3191 2.7386 24.9789 0.580922C24.5224 0.539429 24.066 0.539429 23.6096 0.539429C16.8046 0.580922 10.9955 4.68881 8.46436 10.5394Z" fill="url(#paint2_linear)"/>
<path d="M25.6429 7.34442C22.3234 7.34442 19.2944 8.63073 17.0122 10.7469C19.2529 11.2863 21.3691 12.2407 23.2778 13.4855C24.1906 14.0664 25.0205 14.7303 25.8089 15.4357C29.7923 19.0872 32.3234 24.3569 32.3234 30.166C32.3234 30.3735 32.3234 30.5809 32.3234 30.7469C35.9334 28.5062 38.34 24.5228 38.34 20C38.2985 12.9876 32.6139 7.34442 25.6429 7.34442Z" fill="url(#paint3_linear)"/>
<path d="M26.2656 33.3195C24.7718 33.6929 23.195 33.8589 21.5768 33.8589C10.5394 33.8589 1.57676 24.8963 1.57676 13.8589C1.57676 13.6514 1.57676 13.444 1.57676 13.2365C1.57676 12.7801 1.61826 12.3651 1.65975 11.9502C1.41079 12.4896 1.20332 13.0705 0.995851 13.6099C0.373444 15.6431 0 17.7593 0 20C0 31.0373 8.96266 40 20 40C24.1909 40 28.0913 38.7137 31.2863 36.5145C31.8672 34.8133 32.1992 32.9875 32.2822 31.0788C30.4979 32.1992 28.4647 32.9875 26.2656 33.3195Z" fill="url(#paint4_linear)"/>
<path d="M7.13684 17.054C7.13684 14.7303 7.63476 12.5311 8.46464 10.5394C5.97501 11.0374 3.65136 11.9502 1.61816 13.278C1.61816 13.4855 1.61816 13.693 1.61816 13.9004C1.61816 24.9378 10.5808 33.9004 21.6182 33.9004C23.2364 33.9004 24.8132 33.693 26.307 33.361C25.4356 33.4855 24.5642 33.5685 23.6514 33.5685C14.4812 33.5685 7.13684 26.1826 7.13684 17.054Z" fill="url(#paint5_linear)"/>
<path d="M32.2824 30.7469C30.3322 31.9502 28.0501 32.6556 25.6434 32.6556C18.7969 32.6556 13.1953 27.1784 12.9878 20.3734C12.9878 20.2489 12.9878 20.1245 12.9878 20C12.9878 19.8755 12.9878 19.751 12.9878 19.6265C13.0708 16.0996 14.6061 12.946 17.0127 10.7469C15.5189 10.3734 13.9007 10.166 12.2824 10.166C10.9546 10.166 9.66832 10.2904 8.4235 10.5394C7.55213 12.5311 7.0957 14.7303 7.0957 17.0539C7.0957 26.1825 14.4816 33.5269 23.5687 33.5269C24.4816 33.5269 25.353 33.444 26.2243 33.3195C28.4235 32.8216 30.4567 31.9502 32.2824 30.7469C32.2824 30.7469 32.2824 30.7884 32.2824 30.7469Z" fill="url(#paint6_linear)"/>
<path d="M20.2077 12.7801C21.2865 12.7801 22.3654 13.029 23.2782 13.444C21.411 12.1992 19.2948 11.2863 17.0127 10.7054C14.6061 12.946 13.0708 16.0996 12.9878 19.5851C13.1953 15.8091 16.3488 12.7801 20.2077 12.7801Z" fill="url(#paint7_linear)"/>
<path d="M25.8094 15.3942C26.8467 16.639 27.4276 18.2573 27.4276 19.9585C27.4276 23.9419 24.1911 27.1785 20.2077 27.1785C16.3488 27.1785 13.1953 24.1494 12.9878 20.332C13.1953 27.137 18.7554 32.6141 25.6434 32.6141C28.0915 32.6141 30.3737 31.9087 32.2824 30.7054C32.2824 30.498 32.2824 30.2905 32.2824 30.1245C32.3239 24.3154 29.7928 19.0872 25.8094 15.3942Z" fill="url(#paint8_linear)"/>
<defs>
<linearGradient id="paint0_linear" x1="31.283" y1="27.8122" x2="39.9915" y2="27.8122" gradientUnits="userSpaceOnUse">
<stop stop-color="#13315D"/>
<stop offset="1" stop-color="#0E9A9B"/>
</linearGradient>
<linearGradient id="paint1_linear" x1="1.59168" y1="6.64141" x2="24.9773" y2="6.64141" gradientUnits="userSpaceOnUse">
<stop stop-color="#0F7A8D"/>
<stop offset="1" stop-color="#48BBB5"/>
</linearGradient>
<linearGradient id="paint2_linear" x1="8.45734" y1="15.6703" x2="39.9712" y2="15.6703" gradientUnits="userSpaceOnUse">
<stop stop-color="#0F7A8D"/>
<stop offset="1" stop-color="#48BBB5"/>
</linearGradient>
<linearGradient id="paint3_linear" x1="17.0329" y1="19.0495" x2="38.2969" y2="19.0495" gradientUnits="userSpaceOnUse">
<stop stop-color="#13315D"/>
<stop offset="1" stop-color="#0E9A9B"/>
</linearGradient>
<linearGradient id="paint4_linear" x1="5.41957e-06" y1="25.9854" x2="32.2877" y2="25.9854" gradientUnits="userSpaceOnUse">
<stop stop-color="#EEEA3C"/>
<stop offset="0.8345" stop-color="#EE7717"/>
<stop offset="1" stop-color="#CE5A16"/>
</linearGradient>
<linearGradient id="paint5_linear" x1="1.58148" y1="22.2158" x2="26.2712" y2="22.2158" gradientUnits="userSpaceOnUse">
<stop stop-color="#E73D32"/>
<stop offset="0.4897" stop-color="#ECCD24"/>
</linearGradient>
<linearGradient id="paint6_linear" x1="7.11745" y1="21.8598" x2="13.8368" y2="21.8598" gradientUnits="userSpaceOnUse">
<stop stop-color="#8B1C68"/>
<stop offset="1" stop-color="#E62053"/>
</linearGradient>
<linearGradient id="paint7_linear" x1="10.0019" y1="22.2442" x2="21.3371" y2="10.909" gradientUnits="userSpaceOnUse">
<stop stop-color="#A91167"/>
<stop offset="1" stop-color="#182448"/>
</linearGradient>
<linearGradient id="paint8_linear" x1="17.9853" y1="30.2275" x2="29.3205" y2="18.8924" gradientUnits="userSpaceOnUse">
<stop stop-color="#A91167"/>
<stop offset="1" stop-color="#182448"/>
</linearGradient>
</defs>
</svg>
