<svg width="90" height="132" viewBox="0 0 90 132" fill="none" xmlns="http://www.w3.org/2000/svg">
<g clip-path="url(#clip0)">
<path d="M46.1004 85.1H43.9004C44.3004 85.1 44.7004 85.2 45.2004 85.2C45.5004 85.1 45.8004 85.1 46.1004 85.1Z" fill="#0F8B97"/>
<path d="M23.1 92.7C23.1 99 17.9 104.3 11.5 104.2C5.2 104.2 0 99 0 92.7C0 86.4 5.2 81.1 11.5 81.1C17.8 81.1 23.1 86.3 23.1 92.7ZM20 92.7C20 88.1 16.2 84.3 11.6 84.3C7 84.3 3.2 88.1 3.2 92.7C3.2 97.3 7 101.1 11.6 101.1C16.2 101.1 20 97.3 20 92.7Z" fill="#0F8B97"/>
<path d="M35.0998 104.2C32.9998 104.2 30.9998 103.5 29.3998 102.1V110.6H26.2998V86.8H29.3998V88.9C30.9998 87.6 32.9998 86.8 35.0998 86.8C39.8998 86.8 43.8998 90.7 43.7998 95.5C43.7998 100.3 39.8998 104.3 35.0998 104.2ZM35.0998 89.9C31.9998 89.9 29.3998 92.4 29.3998 95.5C29.3998 98.6 31.8998 101.2 35.0998 101.2C38.1998 101.2 40.6998 98.7 40.6998 95.5C40.6998 92.4 38.0998 89.9 35.0998 89.9Z" fill="#0F8B97"/>
<path d="M49.4 97.1001C50.1 99.5001 52.3 101.1 54.8 101.1C56.4 101.1 57.9 100.4 59 99.1001H62.7C62.6 99.5001 62.4 99.8001 62.2 100.1C62.2 100.1 61.9 100.5 61.9 100.6C60.3 102.9 57.7 104.2 54.9 104.2C52.5 104.2 50.1 103.2 48.5 101.4C46.6 99.4001 45.8 96.4001 46.4 93.6001C47.3 89.6001 50.8 86.7001 54.9 86.7001C58 86.7001 60.9 88.3001 62.4 91.0001C62.8 91.6001 64.1 93.8001 63.5 97.0001H49.4V97.1001ZM60.3 93.9001C59.5 91.5001 57.4 89.9001 54.9 89.9001C52.4 89.9001 50.2 91.5001 49.5 93.9001H60.3Z" fill="#0F8B97"/>
<path d="M66.4004 104.2V80.3H69.5004V104.2H66.4004Z" fill="#0F8B97"/>
<path d="M86.9 86.8001H90V104.3H86.9V102.2C85.3 103.5 83.3 104.3 81.3 104.3C76.5 104.3 72.5 100.4 72.5 95.5C72.5 90.7 76.4 86.7001 81.3 86.8001C83.3 86.8001 85.4 87.5001 86.9 88.9001V86.8001ZM86.9 95.5C86.9 92.4 84.4 89.9001 81.3 89.9001C78.2 89.9001 75.6 92.4 75.6 95.5C75.6 98.6 78.1 101.2 81.3 101.2C84.3 101.1 86.9 98.6 86.9 95.5Z" fill="#0F8B97"/>
<path d="M5.30039 117.6C5.30039 118.6 4.60039 119.3 3.30039 119.3H2.10039V120.7H1.40039V115.9H3.30039C4.50039 115.9 5.30039 116.6 5.30039 117.6ZM4.60039 117.6C4.60039 116.9 4.10039 116.5 3.30039 116.5H2.10039V118.6H3.30039C4.10039 118.7 4.60039 118.3 4.60039 117.6Z" fill="#666767"/>
<path d="M8.00059 117.1V117.7C7.90059 117.7 7.90059 117.7 7.90059 117.7C7.20059 117.7 6.80059 118.1 6.80059 118.9V120.7H6.10059V117.1H6.70059V117.7C6.90059 117.3 7.40059 117.1 8.00059 117.1Z" fill="#666767"/>
<path d="M8.40039 118.9C8.40039 117.8 9.20039 117.1 10.3004 117.1C11.4004 117.1 12.2004 117.9 12.2004 118.9C12.2004 119.9 11.4004 120.7 10.3004 120.7C9.20039 120.7 8.40039 120 8.40039 118.9ZM11.5004 118.9C11.5004 118.1 11.0004 117.6 10.3004 117.6C9.60039 117.6 9.10039 118.1 9.10039 118.9C9.10039 119.7 9.60039 120.2 10.3004 120.2C11.0004 120.2 11.5004 119.7 11.5004 118.9Z" fill="#666767"/>
<path d="M17.8006 120.7L16.8006 119.2C16.7006 119.2 16.6006 119.2 16.5006 119.2H15.3006V120.6H14.6006V115.8H16.5006C17.7006 115.8 18.5006 116.4 18.5006 117.5C18.5006 118.2 18.1006 118.8 17.5006 119L18.6006 120.6H17.8006V120.7ZM17.8006 117.6C17.8006 116.9 17.3006 116.5 16.5006 116.5H15.3006V118.6H16.5006C17.3006 118.7 17.8006 118.3 17.8006 117.6Z" fill="#666767"/>
<path d="M22.7002 119.1H19.8002C19.9002 119.7 20.4002 120.2 21.1002 120.2C21.5002 120.2 21.9002 120.1 22.1002 119.8L22.5002 120.2C22.2002 120.6 21.7002 120.8 21.1002 120.8C19.9002 120.8 19.2002 120 19.2002 119C19.2002 117.9 20.0002 117.2 21.0002 117.2C22.0002 117.2 22.8002 117.9 22.8002 119.1C22.7002 119 22.7002 119 22.7002 119.1ZM19.7002 118.6H22.0002C21.9002 118 21.5002 117.6 20.8002 117.6C20.3002 117.6 19.8002 118 19.7002 118.6Z" fill="#666767"/>
<path d="M23.2002 118.9C23.2002 117.8 24.0002 117.1 25.1002 117.1C25.7002 117.1 26.3002 117.4 26.6002 117.9L26.1002 118.2C25.9002 117.8 25.5002 117.7 25.1002 117.7C24.4002 117.7 23.9002 118.2 23.9002 119C23.9002 119.8 24.4002 120.3 25.1002 120.3C25.5002 120.3 25.8002 120.1 26.1002 119.8L26.6002 120.1C26.3002 120.6 25.8002 120.9 25.1002 120.9C24.0002 120.7 23.2002 120 23.2002 118.9Z" fill="#666767"/>
<path d="M29.3004 117.1V117.7C29.2004 117.7 29.2004 117.7 29.2004 117.7C28.5004 117.7 28.1004 118.1 28.1004 118.9V120.7H27.4004V117.1H28.0004V117.7C28.2004 117.3 28.7004 117.1 29.3004 117.1Z" fill="#666767"/>
<path d="M33.4 117.1V120.7H32.8V120.2C32.5 120.6 32.1 120.8 31.6 120.8C30.7 120.8 30 120.3 30 119.2V117.1H30.7V119.1C30.7 119.8 31.1 120.2 31.7 120.2C32.4 120.2 32.8 119.8 32.8 119V117.1H33.4Z" fill="#666767"/>
<path d="M34.4004 116C34.4004 115.8 34.6004 115.6 34.8004 115.6C35.1004 115.6 35.2004 115.8 35.2004 116C35.2004 116.2 35.0004 116.4 34.8004 116.4C34.6004 116.4 34.4004 116.2 34.4004 116ZM34.5004 117.1H35.2004V120.7H34.5004V117.1Z" fill="#666767"/>
<path d="M38.3008 120.5C38.1008 120.7 37.8008 120.8 37.5008 120.8C36.8008 120.8 36.4008 120.4 36.4008 119.7V117.7H35.8008V117.2H36.4008V116.4H37.0008V117.2H38.0008V117.7H37.0008V119.7C37.0008 120.1 37.2008 120.3 37.6008 120.3C37.8008 120.3 38.0008 120.2 38.1008 120.1L38.3008 120.5Z" fill="#666767"/>
<path d="M38.9004 116C38.9004 115.8 39.1004 115.6 39.3004 115.6C39.6004 115.6 39.7004 115.8 39.7004 116C39.7004 116.2 39.5004 116.4 39.3004 116.4C39.0004 116.4 38.9004 116.2 38.9004 116ZM39.0004 117.1H39.7004V120.7H39.0004V117.1Z" fill="#666767"/>
<path d="M44.2002 118.6V120.7H43.5002V118.7C43.5002 118 43.1002 117.6 42.5002 117.6C41.8002 117.6 41.4002 118 41.4002 118.8V120.7H40.7002V117.1H41.3002V117.6C41.6002 117.2 42.0002 117 42.6002 117C43.5002 117.1 44.2002 117.6 44.2002 118.6Z" fill="#666767"/>
<path d="M48.7004 117.1V120.2C48.7004 121.5 48.1004 122.1 46.8004 122.1C46.1004 122.1 45.5004 121.9 45.1004 121.6L45.4004 121.1C45.7004 121.4 46.3004 121.6 46.8004 121.6C47.7004 121.6 48.0004 121.2 48.0004 120.4V120C47.7004 120.4 47.2004 120.6 46.7004 120.6C45.7004 120.6 44.9004 119.9 44.9004 118.9C44.9004 117.9 45.7004 117.2 46.7004 117.2C47.2004 117.2 47.7004 117.4 48.0004 117.8V117.2H48.7004V117.1ZM48.1004 118.8C48.1004 118.1 47.6004 117.6 46.9004 117.6C46.2004 117.6 45.7004 118.1 45.7004 118.8C45.7004 119.5 46.2004 120 46.9004 120C47.6004 120 48.1004 119.5 48.1004 118.8Z" fill="#666767"/>
<path d="M55 120.1V120.7H51.5V115.9H54.9V116.5H52.2V118H54.6V118.6H52.2V120.1H55Z" fill="#666767"/>
<path d="M58.4006 120.7L57.4006 119.3L56.3006 120.7H55.6006L57.0006 118.9L55.6006 117.1H56.3006L57.3006 118.4L58.3006 117.1H59.0006L57.6006 118.9L59.0006 120.7H58.4006Z" fill="#666767"/>
<path d="M63.5002 118.9C63.5002 120 62.7002 120.7 61.7002 120.7C61.2002 120.7 60.7002 120.5 60.4002 120.1V122H59.7002V117.1H60.3002V117.7C60.6002 117.3 61.1002 117.1 61.6002 117.1C62.7002 117.1 63.5002 117.8 63.5002 118.9ZM62.8002 118.9C62.8002 118.1 62.3002 117.6 61.6002 117.6C60.9002 117.6 60.4002 118.1 60.4002 118.9C60.4002 119.7 60.9002 120.2 61.6002 120.2C62.3002 120.2 62.8002 119.7 62.8002 118.9Z" fill="#666767"/>
<path d="M67.6006 119.1H64.7006C64.8006 119.7 65.3006 120.2 66.0006 120.2C66.4006 120.2 66.8006 120.1 67.0006 119.8L67.4006 120.2C67.1006 120.6 66.6006 120.8 66.0006 120.8C64.8006 120.8 64.1006 120 64.1006 119C64.1006 117.9 64.9006 117.2 65.9006 117.2C66.9006 117.2 67.7006 117.9 67.7006 119.1C67.6006 119 67.6006 119 67.6006 119.1ZM64.7006 118.6H67.0006C66.9006 118 66.5006 117.6 65.8006 117.6C65.2006 117.6 64.7006 118 64.7006 118.6Z" fill="#666767"/>
<path d="M70.4 117.1V117.7C70.3 117.7 70.3 117.7 70.3 117.7C69.6 117.7 69.2 118.1 69.2 118.9V120.7H68.5V117.1H69.1V117.7C69.3 117.3 69.7 117.1 70.4 117.1Z" fill="#666767"/>
<path d="M70.9004 116C70.9004 115.8 71.1004 115.6 71.3004 115.6C71.6004 115.6 71.7004 115.8 71.7004 116C71.7004 116.2 71.5004 116.4 71.3004 116.4C71.1004 116.4 70.9004 116.2 70.9004 116ZM71.1004 117.1H71.8004V120.7H71.1004V117.1Z" fill="#666767"/>
<path d="M76.1006 119.1H73.2006C73.3006 119.7 73.8006 120.2 74.5006 120.2C74.9006 120.2 75.3006 120.1 75.5006 119.8L75.9006 120.2C75.6006 120.6 75.1006 120.8 74.5006 120.8C73.3006 120.8 72.6006 120 72.6006 119C72.6006 117.9 73.4006 117.2 74.4006 117.2C75.4006 117.2 76.2006 117.9 76.2006 119.1C76.1006 119 76.1006 119 76.1006 119.1ZM73.2006 118.6H75.5006C75.4006 118 75.0006 117.6 74.3006 117.6C73.7006 117.6 73.3006 118 73.2006 118.6Z" fill="#666767"/>
<path d="M80.4004 118.6V120.7H79.7004V118.7C79.7004 118 79.3004 117.6 78.7004 117.6C78.0004 117.6 77.6004 118 77.6004 118.8V120.7H76.9004V117.1H77.5004V117.6C77.8004 117.2 78.2004 117 78.8004 117C79.7004 117.1 80.4004 117.6 80.4004 118.6Z" fill="#666767"/>
<path d="M81.2002 118.9C81.2002 117.8 82.0002 117.1 83.1002 117.1C83.7002 117.1 84.3002 117.4 84.6002 117.9L84.1002 118.2C83.9002 117.8 83.5002 117.7 83.1002 117.7C82.4002 117.7 81.9002 118.2 81.9002 119C81.9002 119.8 82.4002 120.3 83.1002 120.3C83.5002 120.3 83.8002 120.1 84.1002 119.8L84.6002 120.1C84.3002 120.6 83.8002 120.9 83.1002 120.9C82.0002 120.7 81.2002 120 81.2002 118.9Z" fill="#666767"/>
<path d="M88.5 119.1H85.6C85.7 119.7 86.2 120.2 86.9 120.2C87.3 120.2 87.7 120.1 87.9 119.8L88.3 120.2C88 120.6 87.5 120.8 86.9 120.8C85.7 120.8 85 120 85 119C85 117.9 85.8 117.2 86.8 117.2C87.8 117.2 88.6 117.9 88.6 119.1C88.5 119 88.5 119 88.5 119.1ZM85.6 118.6H87.9C87.8 118 87.4 117.6 86.7 117.6C86.1 117.6 85.7 118 85.6 118.6Z" fill="#666767"/>
<path d="M21.4002 127.9C21.4002 129 20.6002 129.7 19.6002 129.7C19.1002 129.7 18.6002 129.5 18.3002 129.1V129.7H17.7002V124.7H18.4002V126.7C18.7002 126.3 19.1002 126.1 19.7002 126.1C20.6002 126.1 21.4002 126.8 21.4002 127.9ZM20.7002 127.9C20.7002 127.1 20.2002 126.6 19.5002 126.6C18.8002 126.6 18.3002 127.1 18.3002 127.9C18.3002 128.7 18.8002 129.2 19.5002 129.2C20.2002 129.2 20.7002 128.7 20.7002 127.9Z" fill="#666767"/>
<path d="M25.4 126.1L23.7 130.1C23.4 130.9 23 131.1 22.4 131.1C22.1 131.1 21.7 131 21.5 130.8L21.8 130.3C22 130.5 22.2 130.6 22.4 130.6C22.7 130.6 22.9 130.5 23.1 130L23.2 129.7L21.6 126.1H22.3L23.6 129L24.8 126.1H25.4Z" fill="#666767"/>
<path d="M31.4 126.6C31.4 127.6 30.7 128.3 29.4 128.3H28.2V129.7H27.5V124.9H29.4C30.7 124.9 31.4 125.6 31.4 126.6ZM30.7 126.6C30.7 125.9 30.2 125.5 29.4 125.5H28.2V127.6H29.4C30.3 127.7 30.7 127.3 30.7 126.6Z" fill="#666767"/>
<path d="M31.9004 127.9C31.9004 126.8 32.7004 126.1 33.8004 126.1C34.9004 126.1 35.7004 126.9 35.7004 127.9C35.7004 128.9 34.9004 129.7 33.8004 129.7C32.7004 129.7 31.9004 129 31.9004 127.9ZM35.0004 127.9C35.0004 127.1 34.5004 126.6 33.8004 126.6C33.1004 126.6 32.6004 127.1 32.6004 127.9C32.6004 128.7 33.1004 129.2 33.8004 129.2C34.5004 129.2 35.0004 128.7 35.0004 127.9Z" fill="#666767"/>
<path d="M38.5 129.5C38.3 129.7 38 129.8 37.7 129.8C37 129.8 36.6 129.4 36.6 128.7V126.7H36V126.2H36.6V125.4H37.3V126.2H38.3V126.7H37.3V128.7C37.3 129.1 37.5 129.3 37.9 129.3C38.1 129.3 38.3 129.2 38.4 129.1L38.5 129.5Z" fill="#666767"/>
<path d="M42.4004 128.1H39.5004C39.6004 128.7 40.1004 129.2 40.8004 129.2C41.2004 129.2 41.6004 129.1 41.8004 128.8L42.2004 129.2C41.9004 129.6 41.4004 129.8 40.8004 129.8C39.6004 129.8 38.9004 129 38.9004 128C38.9004 126.9 39.7004 126.2 40.7004 126.2C41.7004 126.2 42.5004 126.9 42.5004 128.1C42.4004 128 42.4004 128 42.4004 128.1ZM39.4004 127.6H41.7004C41.6004 127 41.2004 126.6 40.5004 126.6C40.0004 126.6 39.5004 127 39.4004 127.6Z" fill="#666767"/>
<path d="M46.6002 127.6V129.7H46.0002V127.7C46.0002 127 45.6002 126.6 45.0002 126.6C44.3002 126.6 43.9002 127 43.9002 127.8V129.7H43.2002V126.1H43.8002V126.6C44.1002 126.2 44.5002 126 45.1002 126C46.0002 126.1 46.6002 126.6 46.6002 127.6Z" fill="#666767"/>
<path d="M49.7002 129.5C49.5002 129.7 49.2002 129.8 48.9002 129.8C48.2002 129.8 47.8002 129.4 47.8002 128.7V126.7H47.2002V126.2H47.8002V125.4H48.5002V126.2H49.5002V126.7H48.5002V128.7C48.5002 129.1 48.7002 129.3 49.1002 129.3C49.3002 129.3 49.5002 129.2 49.6002 129.1L49.7002 129.5Z" fill="#666767"/>
<path d="M50.2002 125C50.2002 124.8 50.4002 124.6 50.6002 124.6C50.9002 124.6 51.0002 124.8 51.0002 125C51.0002 125.2 50.8002 125.4 50.6002 125.4C50.4002 125.4 50.2002 125.2 50.2002 125ZM50.4002 126.1H51.0002V129.7H50.3002V126.1H50.4002Z" fill="#666767"/>
<path d="M55.0004 127.5V129.7H54.4004V129.2C54.2004 129.5 53.8004 129.7 53.2004 129.7C52.4004 129.7 51.9004 129.3 51.9004 128.6C51.9004 128 52.3004 127.5 53.3004 127.5H54.3004V127.4C54.3004 126.8 54.0004 126.5 53.3004 126.5C52.9004 126.5 52.4004 126.6 52.2004 126.9L51.9004 126.4C52.3004 126.1 52.8004 125.9 53.4004 125.9C54.4004 126.1 55.0004 126.5 55.0004 127.5ZM54.4004 128.6V128.1H53.4004C52.8004 128.1 52.6004 128.4 52.6004 128.7C52.6004 129.1 52.9004 129.3 53.4004 129.3C53.8004 129.2 54.2004 129 54.4004 128.6Z" fill="#666767"/>
<path d="M56.1006 124.6H56.8006V129.6H56.1006V124.6Z" fill="#666767"/>
<path d="M57.7002 125C57.7002 124.8 57.9002 124.6 58.1002 124.6C58.4002 124.6 58.5002 124.8 58.5002 125C58.5002 125.2 58.3002 125.4 58.1002 125.4C57.9002 125.4 57.7002 125.2 57.7002 125ZM57.9002 126.1H58.6002V129.7H57.9002V126.1Z" fill="#666767"/>
<path d="M63.1008 126.1V129.2C63.1008 130.5 62.5008 131.1 61.2008 131.1C60.5008 131.1 59.9008 130.9 59.5008 130.6L59.8008 130.1C60.1008 130.4 60.7008 130.6 61.2008 130.6C62.1008 130.6 62.4008 130.2 62.4008 129.4V129C62.1008 129.4 61.6008 129.6 61.1008 129.6C60.1008 129.6 59.3008 128.9 59.3008 127.9C59.3008 126.9 60.1008 126.2 61.1008 126.2C61.6008 126.2 62.1008 126.4 62.4008 126.8V126.2H63.1008V126.1ZM62.5008 127.8C62.5008 127.1 62.0008 126.6 61.3008 126.6C60.6008 126.6 60.1008 127.1 60.1008 127.8C60.1008 128.5 60.6008 129 61.3008 129C61.9008 129 62.5008 128.5 62.5008 127.8Z" fill="#666767"/>
<path d="M67.6002 127.6V129.7H67.0002V127.7C67.0002 127 66.6002 126.6 66.0002 126.6C65.3002 126.6 64.9002 127 64.9002 127.8V129.7H64.2002V124.7H64.9002V126.7C65.2002 126.4 65.6002 126.2 66.2002 126.2C67.0002 126.1 67.6002 126.6 67.6002 127.6Z" fill="#666767"/>
<path d="M70.7002 129.5C70.5002 129.7 70.2002 129.8 69.9002 129.8C69.2002 129.8 68.8002 129.4 68.8002 128.7V126.7H68.2002V126.2H68.8002V125.4H69.5002V126.2H70.5002V126.7H69.5002V128.7C69.5002 129.1 69.7002 129.3 70.1002 129.3C70.3002 129.3 70.5002 129.2 70.6002 129.1L70.7002 129.5Z" fill="#666767"/>
<path d="M71.3008 129.3C71.3008 129 71.5008 128.8 71.8008 128.8C72.0008 128.8 72.2008 129 72.2008 129.3C72.2008 129.6 72.0008 129.8 71.8008 129.8C71.5008 129.7 71.3008 129.5 71.3008 129.3Z" fill="#666767"/>
<path d="M83.3002 36.7C82.5002 19.5 70.6002 5.3 54.5002 1.2C51.5002 0.4 48.3002 0 45.0002 0C29.3002 0 15.8002 9.4 9.9002 23C9.4002 24 9.0002 25.1 8.7002 26.2C7.4002 30 6.7002 34.1 6.7002 38.4C6.7002 59.6 23.9002 76.7 45.0002 76.7C53.0002 76.7 60.5002 74.2 66.6002 70C75.7002 63.7 82.0002 53.6 83.1002 42C83.2002 40.8 83.3002 39.6 83.3002 38.3C83.3002 37.8 83.3002 37.2 83.3002 36.7ZM45.4002 52.2C38.0002 52.2 32.0002 46.4 31.6002 39C31.6002 38.8 31.6002 38.5 31.6002 38.3C31.6002 38.1 31.6002 37.8 31.6002 37.6C32.0002 30.3 38.0002 24.5 45.4002 24.5C47.5002 24.5 49.5002 25 51.3002 25.8C53.0002 26.9 54.6002 28.2 56.1002 29.6C58.1002 32 59.2002 35 59.2002 38.4C59.3002 46 53.1002 52.2 45.4002 52.2Z" fill="#F1E62B"/>
<path d="M83.3002 36.7C82.7002 41.7 80.9002 46.3 78.3002 50.3C75.6002 53.7 72.3002 56.7 68.6002 59.1C68.6002 59.3 68.6002 59.5 68.6002 59.7C68.4002 63.3 67.8002 66.8 66.7002 70.1C75.8002 63.8 82.1002 53.7 83.2002 42.1C83.3002 40.9 83.4002 39.7 83.4002 38.4C83.3002 37.8 83.3002 37.2 83.3002 36.7Z" fill="url(#paint0_linear)"/>
<path d="M22.9002 20.2C27.7002 9 38.9002 1.1 51.9002 1.1C52.8002 1.1 53.7002 1.1 54.5002 1.2C51.5002 0.4 48.3002 0 45.0002 0C29.3002 0 15.8002 9.4 9.9002 23C9.8002 23.8 9.8002 24.7 9.7002 25.5C13.7002 22.9 18.1002 21.1 22.9002 20.2Z" fill="url(#paint1_linear)"/>
<path d="M22.9004 20.2C25.3004 19.7 27.8004 19.5 30.3004 19.5C33.4004 19.5 36.4004 19.9 39.3004 20.6C43.6004 16.6 49.4004 14.1 55.8004 14.1C69.2004 14.1 80.1004 25 80.1004 38.4C80.1004 47.1 75.5004 54.7 68.6004 59C72.3004 56.6 75.6004 53.7 78.3004 50.2C81.0004 46.2 82.7004 41.6 83.3004 36.6C82.5004 19.5 70.6004 5.29998 54.5004 1.19998C53.6004 1.09998 52.8004 1.09998 51.9004 1.09998C38.9004 1.09998 27.7004 8.99998 22.9004 20.2Z" fill="url(#paint2_linear)"/>
<path d="M55.7998 14.1C49.3998 14.1 43.5998 16.6 39.2998 20.6C43.5998 21.6 47.6998 23.4 51.2998 25.8C52.9998 26.9 54.5998 28.2 56.0998 29.6C63.7998 36.6 68.5998 46.7 68.5998 57.9C68.5998 58.3 68.5998 58.7 68.5998 59C75.4998 54.7 80.0998 47.1 80.0998 38.4C80.0998 24.9 69.1998 14.1 55.7998 14.1Z" fill="url(#paint3_linear)"/>
<path d="M57.0002 63.9C54.1002 64.6 51.1002 65 48.0002 65C26.9002 65 9.7002 47.8 9.7002 26.6C9.7002 26.2 9.7002 25.8 9.7002 25.4C9.7002 24.6 9.8002 23.7 9.9002 22.9C9.4002 23.9 9.0002 25 8.7002 26.1C7.4002 29.9 6.7002 34 6.7002 38.3C6.7002 59.5 23.9002 76.6 45.0002 76.6C53.0002 76.6 60.5002 74.1 66.6002 69.9C67.7002 66.6 68.4002 63.1 68.5002 59.5C65.1002 61.7 61.2002 63.2 57.0002 63.9Z" fill="url(#paint4_linear)"/>
<path d="M20.3002 32.7C20.3002 28.3 21.2002 24 22.9002 20.2C18.1002 21.1 13.7002 22.9 9.7002 25.5C9.7002 25.9 9.7002 26.3 9.7002 26.7C9.7002 47.8 26.9002 65 48.0002 65C51.1002 65 54.1002 64.6 57.0002 63.9C55.3002 64.2 53.6002 64.3 51.9002 64.3C34.5002 64.3 20.3002 50.2 20.3002 32.7Z" fill="url(#paint5_linear)"/>
<path d="M68.5998 59C64.8998 61.3 60.4998 62.6 55.7998 62.6C42.6998 62.6 31.9998 52.1 31.5998 39C31.5998 38.8 31.5998 38.5 31.5998 38.3C31.5998 38.1 31.5998 37.8 31.5998 37.6C31.7998 30.9 34.6998 24.8 39.2998 20.6C36.3998 19.9 33.3998 19.5 30.2998 19.5C27.7998 19.5 25.2998 19.7 22.8998 20.2C21.1998 24 20.2998 28.3 20.2998 32.7C20.2998 50.2 34.4998 64.3 51.8998 64.3C53.5998 64.3 55.2998 64.2 56.9998 63.9C61.1998 62.9 65.0998 61.2 68.5998 59Z" fill="url(#paint6_linear)"/>
<path d="M45.4006 24.5C47.5006 24.5 49.5006 25 51.3006 25.8C47.7006 23.4 43.6006 21.6 39.3006 20.6C34.7006 24.9 31.8006 30.9 31.6006 37.6C32.0006 30.3 38.0006 24.5 45.4006 24.5Z" fill="url(#paint7_linear)"/>
<path d="M56.1006 29.5C58.1006 31.9 59.2006 34.9 59.2006 38.3C59.2006 46 53.0006 52.2 45.3006 52.2C38.0006 52.2 32.0006 46.4 31.6006 39C32.0006 52.1 42.7006 62.6 55.8006 62.6C60.5006 62.6 64.9006 61.3 68.6006 59C68.6006 58.6 68.6006 58.2 68.6006 57.9C68.6006 46.6 63.8006 36.6 56.1006 29.5Z" fill="url(#paint8_linear)"/>
</g>
<defs>
<linearGradient id="paint0_linear" x1="66.6234" y1="53.3119" x2="83.3164" y2="53.3119" gradientUnits="userSpaceOnUse">
<stop stop-color="#13315D"/>
<stop offset="1" stop-color="#0E9A9B"/>
</linearGradient>
<linearGradient id="paint1_linear" x1="9.7095" y1="12.7307" x2="54.5363" y2="12.7307" gradientUnits="userSpaceOnUse">
<stop stop-color="#0F7A8D"/>
<stop offset="1" stop-color="#48BBB5"/>
</linearGradient>
<linearGradient id="paint2_linear" x1="22.8706" y1="30.0377" x2="83.278" y2="30.0377" gradientUnits="userSpaceOnUse">
<stop stop-color="#0F7A8D"/>
<stop offset="1" stop-color="#48BBB5"/>
</linearGradient>
<linearGradient id="paint3_linear" x1="39.3078" y1="36.5151" x2="80.0678" y2="36.5151" gradientUnits="userSpaceOnUse">
<stop stop-color="#13315D"/>
<stop offset="1" stop-color="#0E9A9B"/>
</linearGradient>
<linearGradient id="paint4_linear" x1="6.6582" y1="49.8103" x2="68.549" y2="49.8103" gradientUnits="userSpaceOnUse">
<stop stop-color="#EEEA3C"/>
<stop offset="0.8345" stop-color="#EE7717"/>
<stop offset="1" stop-color="#CE5A16"/>
</linearGradient>
<linearGradient id="paint5_linear" x1="9.6899" y1="42.5844" x2="57.0165" y2="42.5844" gradientUnits="userSpaceOnUse">
<stop stop-color="#E73D32"/>
<stop offset="0.4897" stop-color="#ECCD24"/>
</linearGradient>
<linearGradient id="paint6_linear" x1="20.3004" y1="41.9021" x2="33.1804" y2="41.9021" gradientUnits="userSpaceOnUse">
<stop stop-color="#8B1C68"/>
<stop offset="1" stop-color="#E62053"/>
</linearGradient>
<linearGradient id="paint7_linear" x1="25.8304" y1="42.6389" x2="47.5583" y2="20.9109" gradientUnits="userSpaceOnUse">
<stop stop-color="#A91167"/>
<stop offset="1" stop-color="#182448"/>
</linearGradient>
<linearGradient id="paint8_linear" x1="41.1333" y1="57.9417" x2="62.8612" y2="36.2138" gradientUnits="userSpaceOnUse">
<stop stop-color="#A91167"/>
<stop offset="1" stop-color="#182448"/>
</linearGradient>
<clipPath id="clip0">
<rect width="90" height="131.1" fill="white"/>
</clipPath>
</defs>
</svg>
